<?xml version="1.0" encoding="utf-8"?>
<!-- Generator: Adobe Illustrator 18.1.1, SVG Export Plug-In . SVG Version: 6.00 Build 0)  -->
<!DOCTYPE svg PUBLIC "-//W3C//DTD SVG 1.1//EN" "http://www.w3.org/Graphics/SVG/1.1/DTD/svg11.dtd">
<svg version="1.1" id="Layer_1" xmlns="http://www.w3.org/2000/svg" xmlns:xlink="http://www.w3.org/1999/xlink" x="0px" y="0px"
	 viewBox="-333 288.3 174 20" enable-background="new -333 288.3 174 20" xml:space="preserve">
<defs>
	<filter id="Adobe_OpacityMaskFilter" filterUnits="userSpaceOnUse" x="-333" y="288.3" width="174" height="20">
		<feColorMatrix  type="matrix" values="1 0 0 0 0  0 1 0 0 0  0 0 1 0 0  0 0 0 1 0"/>
	</filter>
</defs>
<mask maskUnits="userSpaceOnUse" x="-333" y="288.3" width="174" height="20" id="a">
	<path fill="#FFFFFF" filter="url(#Adobe_OpacityMaskFilter)" d="M-330,288.3h168c1.7,0,3,1.3,3,3v14c0,1.7-1.3,3-3,3h-168
		c-1.7,0-3-1.3-3-3v-14C-333,289.6-331.7,288.3-330,288.3z"/>
</mask>
<g mask="url(#a)">
	<path fill="#555555" d="M-333,288.3h33v20h-33V288.3z"/>
	<path fill="#007EC6" d="M-300,288.3h141v20h-141V288.3z"/>
	
		<linearGradient id="SVGID_1_" gradientUnits="userSpaceOnUse" x1="-663.5862" y1="582.21" x2="-663.5862" y2="581.21" gradientTransform="matrix(174 0 0 -20 115218 11932.4795)">
		<stop  offset="0" style="stop-color:#BBBBBB;stop-opacity:0.1"/>
		<stop  offset="1" style="stop-color:#000000;stop-opacity:0.1"/>
	</linearGradient>
	<path fill="url(#SVGID_1_)" d="M-333,288.3h174v20h-174V288.3z"/>
</g>
<g>
	<g enable-background="new    ">
		<text transform="matrix(1 0 0 1 -325.6863 303.0618)" fill="#010101" font-family="'Verdana'" font-size="10">DOI</text>
	</g>
	<text transform="matrix(1 0 0 1 -325.6863 302.28)" fill="#FFFFFF" font-family="'Verdana'" font-size="10">DOI</text>
	<g enable-background="new    ">
		<text transform="matrix(1 0 0 1 -299.3193 303.0617)" fill="#010101" font-family="'Verdana'" font-size="10">10.1371/journal.pone.0122363</text>
	</g>
	<text transform="matrix(1 0 0 1 -299.3193 302.28)" fill="#FFFFFF" font-family="'Verdana'" font-size="10">10.1371/journal.pone.0122363</text>
</g>
</svg>
